<svg width="296" height="13" viewBox="0 0 296 13" fill="none" xmlns="http://www.w3.org/2000/svg">
<rect width="296" height="3" rx="1.5" fill="#EAEAEA"/>
<rect x="15" width="185" height="3" rx="1.5" fill="#A65CF0"/>
<path d="M10.0197 13C9.25466 13 8.76283 12.1878 9.11724 11.5096L14.8467 0.546693C15.2355 -0.197262 16.3067 -0.177781 16.6682 0.579819L21.8994 11.5428C22.222 12.2187 21.7293 13 20.9804 13L10.0197 13Z" fill="#A65CF0"/>
<path d="M193.02 13C192.255 13 191.763 12.1878 192.117 11.5096L197.847 0.546693C198.236 -0.197262 199.307 -0.177781 199.668 0.579819L204.899 11.5428C205.222 12.2187 204.729 13 203.98 13L193.02 13Z" fill="#A65CF0"/>
</svg>
